<svg width="24" height="24" viewBox="0 0 24 24" fill="none" xmlns="http://www.w3.org/2000/svg">
<path d="M2.69483 2.23828L19.965 19.5084C20.2927 19.8362 20.4768 20.2806 20.4768 20.7441C20.4768 21.2075 20.2927 21.652 19.965 21.9797C19.6372 22.3073 19.1928 22.4913 18.7294 22.4913C18.266 22.4913 17.8215 22.3073 17.4937 21.9797L13.275 17.6883C12.9989 17.4079 12.844 17.0303 12.8437 16.6369V16.3777C12.8438 16.179 12.8043 15.9823 12.7277 15.799C12.6511 15.6157 12.5389 15.4494 12.3975 15.3098L11.8528 14.8069C11.6679 14.6363 11.443 14.5149 11.1989 14.454C10.9548 14.393 10.6993 14.3944 10.4559 14.4581C10.0721 14.5583 9.66875 14.5564 9.2859 14.4525C8.90305 14.3487 8.55401 14.1465 8.27343 13.8661L4.26889 9.86109C1.89327 7.48547 1.01905 3.89812 2.69483 2.23828Z" stroke="#E67E22" stroke-width="1.5" stroke-linejoin="round"/>
<path d="M18.75 1.5L15.1289 5.12109C14.8503 5.39968 14.6292 5.73043 14.4784 6.09445C14.3276 6.45847 14.25 6.84863 14.25 7.24266V7.93922C14.25 8.03777 14.2306 8.13536 14.1929 8.22641C14.1552 8.31746 14.0999 8.40018 14.0302 8.46984L13.5 9M15 10.5L15.5302 9.96984C15.5998 9.90013 15.6825 9.84484 15.7736 9.80711C15.8646 9.76939 15.9622 9.74998 16.0608 9.75H16.7573C17.1514 9.75 17.5415 9.67238 17.9055 9.52158C18.2696 9.37078 18.6003 9.14974 18.8789 8.87109L22.5 5.25M20.625 3.375L16.875 7.125M9.375 17.25L4.70062 21.9506C4.34901 22.3021 3.87218 22.4996 3.375 22.4996C2.87781 22.4996 2.40099 22.3021 2.04937 21.9506C1.69786 21.599 1.5004 21.1222 1.5004 20.625C1.5004 20.1278 1.69786 19.651 2.04937 19.2994L6 15.375" stroke="#E67E22" stroke-width="1.5" stroke-linecap="round" stroke-linejoin="round"/>
</svg>
